<svg xmlns="http://www.w3.org/2000/svg" viewBox="0 0 160 120" role="img" aria-label="Audit phí sàn — kính lúp soi hoá đơn">
  <rect x="46" y="8" width="68" height="90" rx="10" fill="#FDFBF7"></rect>
  <rect x="56" y="20" width="34" height="7" rx="3.5" fill="#1A252C"></rect>
  <rect x="56" y="34" width="48" height="5" rx="2.5" fill="#D8CBB2"></rect>
  <rect x="56" y="44" width="40" height="5" rx="2.5" fill="#D8CBB2"></rect>
  <rect x="52" y="55" width="56" height="14" rx="7" fill="#F7E0CE"></rect>
  <rect x="58" y="59.5" width="28" height="5" rx="2.5" fill="#C24A00"></rect>
  <circle cx="99" cy="62" r="4.5" fill="#C4872A"></circle>
  <rect x="56" y="79" width="24" height="6" rx="3" fill="#1A252C"></rect>
  <rect x="88" y="79" width="16" height="6" rx="3" fill="#C24A00"></rect>
  <circle cx="106" cy="62" r="18" fill="#FFFFFF" opacity="0.12"></circle>
  <circle cx="106" cy="62" r="18" fill="none" stroke="#D35400" stroke-width="5"></circle>
  <line x1="120" y1="76" x2="133" y2="89" stroke="#D35400" stroke-width="7" stroke-linecap="round"></line>
  <path d="M30 28 L30 40 M24 34 L36 34" stroke="#E2702A" stroke-width="3" stroke-linecap="round"></path>
  <circle cx="36" cy="88" r="3.5" fill="#7C8B92"></circle>
</svg>