<svg xmlns="http://www.w3.org/2000/svg" viewBox="0 0 560 440" role="img" aria-label="Ca trực TORO — bát và ngọn lửa giữa dữ liệu đơn hàng">
  <rect width="560" height="440" fill="#1A252C"></rect>
  <circle cx="280" cy="248" r="176" fill="none" stroke="#222F38" stroke-width="1.5"></circle>
  <circle cx="280" cy="248" r="134" fill="none" stroke="#33424D" stroke-width="2" stroke-dasharray="1 11" stroke-linecap="round"></circle>
  
  <path d="M226 192 C217 176 227 158 220 140" fill="none" stroke="#43545F" stroke-width="6" stroke-linecap="round"></path>
  <path d="M334 192 C343 176 333 158 340 140" fill="none" stroke="#43545F" stroke-width="6" stroke-linecap="round"></path>
  
  <g transform="translate(148 128) scale(2.2)">
    <path d="M26 60 A36 36 0 0 0 94 60" fill="none" stroke="#FAF5EE" stroke-width="13" stroke-linecap="round"></path>
    <path d="M60 62 C50 50 56 38 60 24 C64 38 70 50 60 62 Z" fill="#D35400"></path>
  </g>
  
  <path d="M398 250 C436 238 452 218 464 196" fill="none" stroke="#5C6B72" stroke-width="2.5" stroke-dasharray="2 9" stroke-linecap="round"></path>
  <path d="M472 152 C485 152 494 161.5 494 173.5 C494 187.5 472 208 472 208 C472 208 450 187.5 450 173.5 C450 161.5 459 152 472 152 Z" fill="#E2702A"></path>
  <circle cx="472" cy="172" r="8" fill="#1A252C"></circle>
  
  <g transform="translate(390 52)">
    <rect width="128" height="92" rx="14" fill="#FDFBF7"></rect>
    <circle cx="24" cy="26" r="8" fill="#D35400"></circle>
    <rect x="40" y="19" width="54" height="7" rx="3.5" fill="#1A252C"></rect>
    <rect x="40" y="31" width="38" height="5" rx="2.5" fill="#D8CBB2"></rect>
    <rect x="16" y="46" width="96" height="2" rx="1" fill="#E5DBCB"></rect>
    <rect x="16" y="58" width="50" height="6" rx="3" fill="#E5DBCB"></rect>
    <rect x="16" y="70" width="38" height="6" rx="3" fill="#E5DBCB"></rect>
    <rect x="76" y="58" width="36" height="8" rx="4" fill="#C24A00"></rect>
    <circle cx="110" cy="78" r="13" fill="#2F7D58"></circle>
    <path d="M104 78 L108.5 82.5 L116.5 73.5" fill="none" stroke="#FFFFFF" stroke-width="2.6" stroke-linecap="round" stroke-linejoin="round"></path>
  </g>
  
  <circle cx="368" cy="40" r="5" fill="#E2702A"></circle>
  <path d="M357 40 A11 11 0 0 1 379 40" fill="none" stroke="#E2702A" stroke-width="2.5" stroke-linecap="round" opacity=".55"></path>
  <path d="M352 40 A16 16 0 0 1 384 40" fill="none" stroke="#E2702A" stroke-width="2.5" stroke-linecap="round" opacity=".28"></path>
  
  <g transform="translate(56 290)">
    <rect x="2" y="64" width="22" height="36" rx="6" fill="#33424D"></rect>
    <rect x="32" y="48" width="22" height="52" rx="6" fill="#43545F"></rect>
    <rect x="62" y="30" width="22" height="70" rx="6" fill="#C4872A"></rect>
    <rect x="92" y="8" width="22" height="92" rx="6" fill="#D35400"></rect>
    <rect x="0" y="104" width="134" height="2.5" rx="1.25" fill="#33424D"></rect>
  </g>
</svg>